<svg width="225px" height="66px" viewBox="0 0 225 66" version="1.1" xmlns="http://www.w3.org/2000/svg" xmlns:xlink="http://www.w3.org/1999/xlink">
    <defs>
        <polygon id="path-1" points="0 0.166477947 220.013891 0.166477947 220.013891 56.9500046 0 56.9500046"></polygon>
        <polygon id="path-3" points="0.340575881 0.22558497 122.267143 0.22558497 122.267143 41.4996492 0.340575881 41.4996492"></polygon>
    </defs>
    <g id="Blaze-Full-Flow---No-Burger" stroke="none" stroke-width="1" fill="none" fill-rule="evenodd">
        <g id="d.Marketing_v01_AH-Copy-4" transform="translate(-53.000000, -3209.000000)">
            <g id="Blaze_Logo_Horizontal_CMYK" transform="translate(53.000000, 3209.000000)">
                <g id="Group-3" transform="translate(0.000000, 8.690987)">
                    <mask id="mask-2" fill="white">
                        <use xlink:href="#path-1"></use>
                    </mask>
                    <g id="Clip-2"></g>
                    <path d="M220.013891,52.4292393 C220.013891,54.9397429 217.986862,56.9742489 215.486888,56.9742489 L4.52700332,56.9742489 C2.02662592,56.9742489 0,54.9397429 0,52.4292393 L0,4.71108346 C0,2.20098393 2.02662592,0.166477947 4.52700332,0.166477947 L215.486888,0.166477947 C217.986862,0.166477947 220.013891,2.20098393 220.013891,4.71108346 L220.013891,52.4292393" id="Fill-1" fill="#DF6A1A" mask="url(#mask-2)"></path>
                </g>
                <polyline id="Fill-4" fill="#4E504F" points="99.5253687 0.0349610014 100.22671 0.0365501378 100.945233 0 101.664518 0.0746894121 102.384949 0.055619775 103.104235 0.0564143432 103.825048 0.000397284107 104.547388 0.0599899002 105.256747 0.029796308 105.232313 0.705576574 105.257511 1.38294598 104.592057 1.38811067 103.914386 1.38254869 103.237097 1.36149263 102.558662 1.38254869 101.878701 1.40519389 101.159033 1.36824646 101.223173 2.45084566 101.844722 2.48501209 102.491086 2.45442121 103.136305 2.50567086 103.783051 2.45283208 104.430943 2.51083556 105.099833 2.44448911 105.025766 3.13258518 105.088379 3.80916002 104.433234 3.85047756 103.786869 3.78730939 103.14165 3.80359804 102.494904 3.78572026 101.847012 3.80399532 101.187285 3.78572026 101.253334 4.45077385 101.16056 5.10430621 101.177359 5.72724769 100.353082 5.79399142 99.5039887 5.7618114 99.4635193 5.04074075 99.5085701 4.3244375 99.5165876 3.60773698 99.5276594 2.88984459 99.5280412 2.17314407 99.46581 1.4548544 99.510479 0.734975598 99.5253687 0.0349610014"></polyline>
                <path d="M114.211642,3.49579828 L114.980553,3.5248239 L115.741819,3.49261739 L116.550161,3.51528123 L116.044394,2.81031645 L115.739405,2.04769804 L115.346298,1.32444314 L114.92382,2.02622703 L114.52669,2.73556553 L114.211642,3.49579828 Z M114.193938,0.00715700285 L114.961642,0.0318089015 L115.736186,0 L116.483771,0.0441348509 L116.937232,0.59522407 L117.212044,1.2771274 L117.567731,1.91330543 L117.881974,2.57373775 L118.215531,3.22462739 L118.70118,3.79122345 L118.95507,4.48624795 L119.360649,5.10015975 L119.742489,5.7617849 L119.046808,5.78842486 L118.385327,5.79399142 L117.750402,5.69737188 L117.521862,5.19757451 L117.199168,4.67193241 L116.447157,4.72481471 L115.725724,4.81467486 L115.002682,4.6572208 L114.278433,4.80393936 L113.567462,4.75384034 L113.256035,5.2182503 L112.998525,5.68584115 L112.369233,5.69538382 L111.704533,5.77848458 L111.051502,5.74031389 L111.315853,5.06994129 L111.756035,4.48028378 L112.157994,3.87114332 L112.439244,3.19639699 L112.861722,2.59600398 L113.150617,1.92602899 L113.463653,1.26639189 L113.849115,0.644527868 L114.193938,0.00715700285 L114.193938,0.00715700285 Z" id="Fill-5" fill="#4E504F"></path>
                <polyline id="Fill-6" fill="#4E504F" points="124.570815 3.81134013 125.531777 3.88870626 126.461454 3.8790836 126.702434 4.34366526 127.277405 4.4283446 128.0422 4.56421645 128.808264 4.49454845 129.573905 4.45798237 130.445662 4.02804226 129.939603 3.60964934 129.215394 3.4934077 128.47977 3.50957375 127.742455 3.51727188 127.019937 3.55114361 126.299955 3.4872492 125.587161 3.37755097 124.936936 3.0892563 124.657061 2.49188205 124.678622 1.8383115 124.608019 1.15548809 125.010076 0.600838411 125.606608 0.250958773 126.319825 0.0696680028 127.067287 0.0919925562 127.938198 0 128.810801 0.0612000688 129.683403 0.00269434265 130.553046 0.120860513 131.379567 0.344875859 131.997237 0.897216103 132.006538 1.69974531 132.06023 1.93569274 131.109838 1.914138 130.181429 1.84985868 129.90705 1.39412987 129.261899 1.32908074 128.570243 1.34524679 127.878165 1.30714109 127.185663 1.31483921 126.474137 1.73015289 127.011481 2.21397985 127.862099 2.19550435 128.712718 2.28326294 129.518522 2.15970809 130.318408 2.28480257 131.132245 2.29365541 131.826014 2.66470488 132.247941 3.26515839 132.296137 3.99724977 132.284722 4.78707708 131.752452 5.39599852 130.969477 5.72470832 130.112095 5.79360651 129.253444 5.79399142 128.497526 5.69314602 127.740764 5.74048947 126.983155 5.76858761 126.134651 5.73202154 125.317854 5.52840621 124.764022 4.98722825 124.603792 4.24320477 124.570815 3.81134013"></polyline>
                <polyline id="Fill-7" fill="#4E504F" points="138.156907 0.0686971774 138.881199 0.0647262423 139.622481 0.0285907328 140.361787 0.0488425018 141.10307 0.104832687 141.845142 0.00794187022 142.585634 0 143.328102 0.0309732938 144.071755 0.108406528 144.778265 0.091728601 144.820545 0.766390476 144.849785 1.51927977 143.996283 1.43231629 143.175183 1.46924599 142.386879 1.51689721 142.418885 2.1971184 142.377396 2.91585765 142.358034 3.63300853 142.36159 4.35214488 142.301924 5.07247251 142.318125 5.74753148 141.478848 5.75070822 140.601242 5.79399142 140.641151 5.07485507 140.629297 4.35651291 140.66565 3.63896493 140.546713 2.92022568 140.557382 2.19989805 140.562914 1.52563327 139.783698 1.46765762 138.962597 1.43866979 138.155722 1.46368668 138.090129 0.765596289 138.156907 0.0686971774"></polyline>
                <polyline id="Fill-8" fill="#4E504F" points="149.678112 2.9096498 150.320175 2.93390347 150.959156 2.92494016 151.609442 2.89699571 151.598821 3.86345182 151.604645 4.82094463 150.959841 4.82832618 150.320861 4.80038173 149.690446 4.79774546 149.685649 3.86345182 149.678112 2.9096498"></polyline>
                <polyline id="Fill-9" fill="#4E504F" points="157.435694 0.0103251389 158.163264 0.0345495033 158.87793 0.0551997811 159.592975 0.0123107426 160.309159 0.0456688837 161.023824 0.0778356626 161.740767 0.0238272437 162.458469 0.0790270248 163.197425 0 163.171616 0.713625948 163.166303 1.39270239 162.503254 1.45981579 161.829199 1.34743063 161.156282 1.44710793 160.481847 1.46259564 159.806274 1.41136707 159.098819 1.38158301 159.140189 2.46731108 159.772495 2.46889956 160.41429 2.51059724 161.055705 2.46333987 161.699018 2.42601053 162.342711 2.53164464 163.020561 2.43832127 162.93137 3.13963647 162.991337 3.80957914 162.345367 3.80799066 161.702813 3.85127682 161.061398 3.7551736 160.418465 3.86398468 159.774393 3.7897231 159.100337 3.77264691 159.076047 4.45728305 159.136393 5.11054664 159.151954 5.79399142 158.28927 5.70662486 157.437971 5.7765181 157.457707 5.04700733 157.428103 4.33099866 157.493763 3.61459286 157.403433 2.89699571 157.493004 2.18019279 157.43114 1.46219852 157.483895 0.742615761 157.435694 0.0103251389"></polyline>
                <polyline id="Fill-10" fill="#4E504F" points="169.054922 0.030649721 169.945252 0 170.85509 0.00756291817 170.922747 0.714894791 170.91071 1.43217787 170.889956 2.1506551 170.887466 2.86953037 170.878334 3.5880076 170.921917 4.30807702 170.837242 5.02894254 170.836827 5.71677004 169.945252 5.79399142 168.991416 5.78961288 169.057828 5.03133083 169.079827 4.3136497 169.063639 3.59557052 169.028773 2.8762972 169.004284 2.15781997 169.018811 1.4381486 168.992246 0.716486985 169.054922 0.030649721"></polyline>
                <path d="M179.402088,2.85486626 L180.114685,2.83539133 L180.807247,2.84413517 L181.500564,2.87950801 L182.19426,2.83022451 L182.805922,2.22809136 L182.805922,2.03771395 L182.599514,1.51824991 L182.043045,1.41093905 L181.390178,1.4789026 L180.73542,1.49917243 L180.079906,1.40457989 L179.403222,1.41332374 L179.48828,2.13429372 L179.402088,2.85486626 Z M177.770486,0.0306034668 L178.468718,0.0111285334 L179.190388,0.019872381 L179.912436,0.0556426669 L180.633728,0.00596171431 L181.356533,0 L182.080849,0 L182.804409,0.0162953525 L183.462192,0.107310858 L184.08028,0.378370135 L184.428829,0.999580766 L184.414842,1.7126018 L184.413707,2.07706127 L184.44206,2.72768302 L184.090865,3.27814798 L183.515873,3.52098847 L183.517763,3.45580706 L184.265139,3.89419179 L184.369855,4.77533316 L184.41522,5.74669515 L183.582029,5.78485012 L182.713303,5.79399142 L182.758667,5.06070056 L182.588551,4.47168318 L182.057789,4.32860204 L181.401141,4.26342063 L180.742981,4.29640878 L180.083308,4.23639419 L179.384698,4.22129118 L179.411539,5.00545534 L179.422124,5.74907984 L178.586287,5.77809351 L177.742889,5.75861858 L177.741377,5.03407157 L177.682403,4.3174735 L177.734194,3.600478 L177.712268,2.88229015 L177.710756,2.16489719 L177.782961,1.44631189 L177.796948,0.727329146 L177.770486,0.0306034668 L177.770486,0.0306034668 Z" id="Fill-11" fill="#4E504F"></path>
                <polyline id="Fill-12" fill="#4E504F" points="190.316978 0.0779831623 191.026227 0.00078770871 191.755397 0.0795585797 192.482907 0.114217763 193.211247 0.107522239 193.940831 0 194.669171 0.09767588 195.399171 0.105552967 196.130416 0.0248128244 196.82016 0.104371404 196.877846 0.722722741 196.883241 1.40606005 196.076465 1.433236 195.290024 1.39975838 194.503998 1.33083387 193.716727 1.43441756 192.928211 1.38636733 192.104004 1.35564669 192.118115 2.31113736 192.88422 2.31034965 193.62916 2.30522954 194.373685 2.24181899 195.119455 2.2658441 195.866055 2.33201164 196.59896 2.31153121 196.645026 2.88498315 196.593565 3.45252728 195.86896 3.49782053 195.12402 3.42338205 194.379495 3.42495747 193.633725 3.4592228 192.88671 3.50451605 192.135545 3.47182614 192.125585 4.39856544 192.943151 4.4084118 193.747852 4.39344533 194.551309 4.42101513 195.356425 4.3635124 196.163201 4.43519389 196.995708 4.35996771 196.991143 5.07126867 196.960017 5.74594118 196.231263 5.74279035 195.490473 5.72900545 194.750928 5.78768975 194.010553 5.74397191 193.268933 5.72309763 192.528558 5.79359756 191.786523 5.74397191 191.043243 5.72979316 190.258877 5.79399142 190.241032 5.04448658 190.236052 4.33436718 190.254727 3.62385392 190.276722 2.9121591 190.304943 2.20125199 190.331503 1.48916332 190.304113 0.775893079 190.316978 0.0779831623"></polyline>
                <polyline id="Fill-13" fill="#4E504F" points="199.892704 2.07470909 200.180383 2.0862855 200.624581 1.70932876 200.615863 1.38084823 200.17325 1.40653338 200.19861 0.705437267 200.193063 0.0162793215 200.995076 0 201.810166 0.00253233891 201.795108 0.579905609 201.824034 1.14823481 201.782428 1.71656402 201.68812 2.42308657 201.069967 2.83549605 200.290541 2.87782229 199.914101 2.89699571 199.892704 2.07470909"></polyline>
                <path d="M207.503609,4.23477724 L208.241375,4.31764347 L209.01371,4.21523332 L209.786832,4.2101519 L210.560346,4.31138942 L211.397894,4.08585255 L211.604924,3.25601757 L211.523212,2.49106843 L211.352324,1.70852975 L210.560346,1.46032193 L209.790367,1.42357935 L209.018032,1.53458883 L208.244517,1.55139661 L207.42229,1.42357935 L207.484753,2.17367512 L207.531894,2.87178405 L207.506752,3.56989298 L207.503609,4.23477724 Z M205.696516,0.0375243322 L206.478281,0.11921793 L207.228224,0.0171986523 L207.978953,0.0121172323 L208.728111,0.113354753 L209.479626,0.114918267 L210.231927,0.0813027197 L210.98462,0 L211.704314,0.0902929243 L212.389438,0.297849387 L212.929602,0.725861301 L213.32402,1.31804217 L213.412017,2.03882205 L213.265093,2.89719115 L213.351126,3.75516937 L213.32677,4.47673101 L212.997172,5.12637101 L212.408295,5.55047414 L211.709421,5.75334006 L210.98462,5.67750964 L210.235462,5.72128802 L209.485519,5.79086439 L208.735182,5.79399142 L207.985632,5.76272114 L207.23451,5.70487113 L206.482209,5.75763972 L205.745622,5.70526201 L205.692981,5.01653416 L205.686695,4.3117803 L205.716552,3.60663555 L205.765657,2.90031818 L205.777443,2.19478255 L205.707123,1.4880743 L205.780978,0.779020771 L205.696516,0.0375243322 L205.696516,0.0375243322 Z" id="Fill-14" fill="#4E504F"></path>
                <path d="M138.017232,22.0024195 C138.017232,22.5797214 138.017232,23.3149491 137.964407,24.3124391 C137.964407,25.3103351 137.964407,25.8352657 137.910344,26.5185281 L137.910344,27.1486073 C137.910344,28.3036171 138.017232,29.1435873 138.017232,29.5641814 C138.017232,29.7212952 137.964407,30.0363348 137.910344,30.5088941 C137.857107,31.0342308 137.857107,31.4020476 137.857107,31.6647159 L137.857107,31.9789435 C137.910344,32.1368693 137.910344,32.2416118 137.910344,32.2943891 C137.910344,32.4519089 137.910344,32.6094287 137.857107,32.871691 L137.857107,33.9751415 C137.910344,34.2374038 137.910344,34.3945177 137.910344,34.5000722 C137.910344,35.7070473 137.910344,36.65176 137.964407,37.439765 L137.964407,38.0178788 C137.964407,38.3852897 138.017232,38.648364 138.12412,38.8054778 C138.177357,38.857849 138.231007,38.9110323 138.391132,38.9110323 L138.657732,38.9110323 L138.817857,38.857849 C139.405533,38.857849 139.779021,38.7527005 139.939146,38.5955867 C140.419521,38.1230273 140.792596,37.650468 140.953134,37.2830571 C141.166496,36.9148343 141.327034,36.2851611 141.486746,35.3396364 C141.539984,34.5000722 141.594047,33.7120672 141.594047,33.0292108 C141.594047,32.5566514 141.594047,31.7690525 141.539984,30.6664139 C141.486746,29.5641814 141.486746,28.7765824 141.486746,28.3036171 C141.486746,26.8335677 141.539984,25.7833004 141.539984,24.8377757 L141.539984,24.1553253 C141.433509,22.7904244 141.220559,21.9500482 141.006371,21.6350086 C140.525996,21.0568947 139.885495,20.7418552 139.405533,20.7418552 C139.138108,20.7418552 138.604908,20.7942264 138.231007,20.8474097 C138.12412,21.0568947 138.070882,21.4243056 138.017232,22.0024195 Z M144.849785,26.1511173 L144.849785,29.1435873 C144.849785,30.5088941 144.849785,31.5063842 144.796961,32.0840921 C144.796961,32.7145772 144.74331,33.5021762 144.690073,34.5000722 C144.690073,35.1817106 144.63601,35.864973 144.529535,36.4422749 C144.529535,36.7049432 144.475885,36.9676116 144.423473,37.3350224 C144.36941,37.7024333 144.31576,37.9131363 144.31576,38.0178788 C144.262935,38.0702501 144.209285,38.2801412 144.10281,38.5432154 C143.995923,38.857849 143.942272,39.0681461 143.889448,39.2256659 C143.835798,39.3831857 143.72891,39.5411114 143.568372,39.7505965 C143.461897,39.9604876 143.355422,40.1180074 143.301772,40.2231559 C142.928697,40.8004578 142.394259,41.2738291 141.700521,41.6940172 C141.114084,42.0614281 139.832258,42.3240964 138.391132,42.3240964 L137.910344,42.3240964 C137.697395,42.3240964 137.59092,43.3731457 137.59092,45.4732743 C137.59092,45.6843833 137.59092,46.0517941 137.643744,46.5247595 L137.643744,47.9420316 L137.536857,52.4581403 C137.59092,54.7161946 137.59092,56.0806895 137.59092,56.5536548 C137.59092,56.6588034 137.216194,56.7635459 136.522869,56.9210657 C136.042494,56.9742489 135.936019,56.9742489 135.722244,56.9742489 L135.348756,56.9742489 C134.654606,56.9210657 134.441243,56.8163232 134.441243,56.7119866 L134.441243,56.6588034 L134.281118,56.0287242 C134.227468,55.4514223 134.227468,54.3483778 134.227468,52.7204026 L134.227468,47.3115465 C134.227468,47.0492842 134.281118,46.419205 134.281118,45.4732743 C134.334355,44.8967843 134.334355,44.423819 134.334355,44.0036309 L134.334355,41.0107549 C134.387593,40.8004578 134.387593,40.643344 134.387593,40.4854182 C134.387593,40.3287104 134.387593,40.1707846 134.334355,40.0656361 L134.334355,38.3325124 C134.334355,37.5453195 134.334355,37.0199828 134.387593,36.65176 L134.494068,24.8905529 L134.494068,23.9454342 C134.547718,23.5252461 134.547718,23.1578352 134.547718,22.8951669 L134.547718,20.7942264 C134.600955,20.4795928 134.600955,20.2697018 134.654606,20.111776 C134.654606,18.9039889 134.707843,18.1691672 134.761493,17.9064989 C134.761493,17.6442366 135.401581,17.4343455 136.682994,17.3819742 C137.483619,17.3819742 138.12412,17.3819742 138.604908,17.4343455 C139.939146,17.6966079 140.580059,17.8017564 140.632471,17.8017564 C141.433509,18.0644247 142.074009,18.3790583 142.554384,18.6945038 C143.194885,19.0619147 143.67526,19.5344741 143.995923,20.0594047 C144.529535,20.8997809 144.796961,22.9475382 144.849785,26.1511173 L144.849785,26.1511173 Z" id="Fill-15" fill="#FFFFFE"></path>
                <path d="M155.308904,21.7874789 C155.308904,21.9462834 155.308904,22.2647047 155.363026,22.6363315 L155.363026,26.7226026 C155.417564,27.2006407 155.417564,27.625067 155.417564,27.891095 L155.417564,36.7004797 C155.417564,37.0725127 155.417564,37.6561497 155.472103,38.3453855 L155.472103,39.8850986 C155.417564,40.787563 155.363026,41.477205 155.363026,41.8484258 C155.363026,42.2204588 155.363026,42.4852683 155.417564,42.6440728 L155.417564,45.1394559 C155.417564,51.2422597 155.417564,54.8521173 155.363026,55.9125739 L155.363026,56.2842008 C155.308904,56.4434114 155.308904,56.6022159 155.308904,56.6558276 C155.308904,56.8682439 155.036627,56.9742489 154.438369,56.9742489 L153.894649,56.9742489 C153.404634,56.9742489 152.806376,56.9218556 152.588638,56.8682439 C151.935841,56.6022159 151.609442,56.3910181 151.609442,56.1786019 L151.773058,37.0725127 C151.773058,36.0636371 151.773058,35.2675839 151.827596,34.789952 L151.827596,28.4215264 C151.827596,28.1563107 151.827596,27.8374832 151.882135,27.4130569 L151.882135,26.4573869 L151.827596,22.3711159 C151.882135,20.7790094 151.882135,19.7701339 151.882135,19.3457075 L151.882135,18.3372381 C151.882135,18.0724286 151.935841,17.8596062 151.990379,17.7003955 C151.935841,17.6471899 151.882135,17.5943905 151.882135,17.5411849 C151.882135,17.4883854 151.882135,17.4883854 151.827596,17.4883854 C151.827596,17.4351798 151.990379,17.4351798 152.316361,17.4351798 L152.698131,17.4351798 C152.860914,17.3819742 153.241851,17.3819742 153.622372,17.3819742 C153.894649,17.3819742 154.166509,17.3819742 154.38383,17.4351798 C154.928383,17.4351798 155.199827,17.5411849 155.199827,17.7003955 C155.254781,18.3372381 155.308904,19.7169283 155.308904,21.7874789" id="Fill-16" fill="#FFFFFE"></path>
                <path d="M169.609663,53.8893836 L172.132834,53.8893836 C172.338959,53.8893836 172.441825,54.7958901 172.441825,56.6610997 C172.441825,57.459951 172.390589,57.8326667 172.236488,57.8326667 L168.836789,57.8864943 C167.961049,57.8864943 167.292224,57.8864943 166.828342,57.9399142 L166.004232,57.9399142 C165.644005,57.8864943 165.386249,57.8864943 165.231753,57.8864943 L164.871131,57.8864943 C164.665793,57.8864943 164.356013,57.8864943 163.995785,57.8326667 L163.171676,57.8326667 C163.01718,57.8326667 162.811054,57.8326667 162.604928,57.8864943 C162.399196,57.9399142 162.244306,57.9399142 162.193464,57.9399142 L162.038968,57.9399142 C161.987338,57.8864943 161.987338,57.8864943 161.935708,57.8864943 C161.678346,57.8864943 161.471826,57.8864943 161.420984,57.8326667 C161.369354,57.7270503 161.369354,57.5137786 161.369354,57.194075 C161.369354,56.3944082 161.317724,55.7015811 161.266094,55.1155937 L165.180123,38.544018 C165.437484,37.7977711 165.592375,36.9981043 165.74687,36.1988452 C165.901366,35.6124501 166.107098,34.9204386 166.261594,34.120364 L167.34346,29.6979333 L169.403537,22.2375027 L163.069204,22.2375027 C162.75903,22.1840828 162.604928,22.1840828 162.554086,22.1840828 L161.935708,22.2375027 C161.832842,21.8117749 161.781212,21.224972 161.781212,20.425713 C161.781212,20.3722931 161.729188,20.2128491 161.729188,19.9995774 C161.626322,19.8397256 161.626322,19.6802816 161.626322,19.5734419 L161.626322,19.360578 C161.575086,19.2537382 161.575086,19.0934787 161.575086,18.880207 C161.575086,18.6673431 161.575086,18.5074913 161.626322,18.454887 C162.450826,18.454887 163.069204,18.454887 163.429432,18.5074913 C163.790053,18.454887 164.304777,18.4010593 165.077257,18.4010593 L169.763765,18.4010593 C169.970285,18.454887 170.124386,18.454887 170.278882,18.454887 C170.330907,18.454887 170.433378,18.454887 170.536244,18.4010593 L171.000126,18.4010593 C171.154228,18.454887 171.257094,18.454887 171.35996,18.454887 L171.824236,18.454887 C172.132834,18.454887 172.338959,18.4010593 172.390589,18.3476395 L172.854077,18.3476395 L172.854077,18.7211707 C172.854077,18.9340346 172.854077,19.0408744 172.802447,19.0934787 C172.854077,19.3071581 172.854077,19.5734419 172.854077,19.8397256 L172.854077,20.1064171 C172.802447,20.2128491 172.802447,20.319281 172.802447,20.425713 C172.802447,21.0121081 172.802447,21.4386514 172.750817,21.7049352 L172.699581,21.7049352 L171.978732,24.6895152 C171.72137,25.7546502 171.51485,26.4474773 171.41159,26.713761 C171.41159,26.8736128 171.257094,27.6728719 170.896866,29.0051062 L167.961049,40.9413873 C167.600822,42.4868933 167.446326,43.3917687 167.39509,43.6584602 C167.085704,44.2448554 166.673846,45.5770897 166.158728,47.6551632 C166.107098,47.868027 165.85013,48.7207059 165.489114,50.2666197 C165.077257,51.8113101 164.768265,52.9306805 164.613769,53.6761119 C164.613769,53.7299396 164.613769,53.8367793 164.562139,53.9432112 C164.510509,53.9970389 164.510509,53.9970389 164.510509,54.050051 L164.562139,54.050051 C164.716635,54.050051 164.974391,54.050051 165.231753,53.9970389 L166.158728,53.9970389 C166.879972,53.9432112 168.012679,53.8893836 169.609663,53.8893836" id="Fill-17" fill="#FFFFFE"></path>
                <path d="M190.236052,55.4541479 C190.236052,56.3449512 190.182727,56.8174258 189.970243,56.8174258 L186.087323,56.8174258 C185.342815,56.8174258 184.597493,56.764483 183.852578,56.6598006 L181.566137,56.9742489 C181.087031,56.8691654 180.714573,56.8174258 179.863824,56.8174258 L178.16151,56.8174258 C178.001943,56.8174258 177.948619,56.7119413 177.948619,56.5029775 C177.948619,55.6117731 178.427725,54.2488963 178.587292,53.2526084 L179.544284,49.2173218 C179.970066,47.3831735 180.289199,46.2300625 180.395848,45.75839 C180.501683,45.4439417 180.661656,44.9201285 180.768305,44.1865494 L181.087031,42.6656462 L181.725297,40.0457782 L182.41648,37.2674827 L182.948504,35.0138026 C183.161395,33.9140355 183.320962,33.3372795 183.320962,33.2847378 C183.374693,33.0753729 183.427611,32.8130653 183.53426,32.4460752 C183.587177,32.0798873 183.800068,31.8693192 183.852578,31.712095 L183.852578,31.5552719 C183.800068,31.5027302 183.800068,31.4501884 183.800068,31.3976467 C183.800068,31.2408236 183.90631,30.8734324 184.012145,30.3496192 L186.087323,21.6497481 C185.608217,21.6497481 184.704142,21.6497481 183.90631,21.5968053 L178.800183,21.5968053 C178.640209,21.6497481 178.055675,21.6497481 177.948619,21.6497481 C177.948619,21.6497481 177.842377,21.7018888 177.842377,21.6497481 C177.789052,21.3348987 177.842377,20.8114866 177.842377,20.8114866 C177.842377,20.5487779 177.682403,20.1821889 177.682403,19.1863021 C177.735728,19.1333593 177.735728,19.029479 177.735728,18.8718537 C177.842377,18.5570043 177.895701,18.4001812 178.001943,18.4001812 C178.055675,18.4001812 178.16151,18.4001812 178.321076,18.3476395 L178.906018,18.3476395 C179.065991,18.4001812 179.119316,18.4001812 179.225558,18.4001812 C179.491366,18.4001812 179.970066,18.4001812 180.608739,18.3476395 L184.332092,18.3476395 C186.459374,18.3476395 187.576339,18.3476395 187.735498,18.4001812 C189.384895,18.4001812 190.182727,18.5048637 190.182727,18.7150307 L190.076078,19.8677405 C190.023161,20.2343295 189.916919,20.706002 189.757352,21.2302163 C189.704028,21.3348987 189.650703,21.5968053 189.597379,22.0167382 C189.49073,22.3829262 189.384895,22.6977756 189.278653,22.9600832 C189.278653,23.3262712 189.172004,23.9551678 188.906195,24.9514557 L188.533738,26.5762391 L184.597493,42.928355 L184.332092,44.0810648 C184.225036,45.1294934 184.225036,44.7629043 184.012145,45.6011659 C183.90631,45.8113329 183.959635,46.124979 183.800068,46.4923702 L183.427611,47.9069867 C182.73602,50.7370217 182.36397,52.7817381 182.097754,53.5670568 C183.055153,53.6199996 184.225036,53.6199996 185.501975,53.6199996 L188.586655,53.6199996 C189.278653,53.6729424 189.704028,53.6729424 189.863594,53.7250831 C190.076078,53.7250831 190.236052,54.1442139 190.236052,55.4541479" id="Fill-18" fill="#FFFFFE"></path>
                <path d="M201.586837,21.1877257 C200.784929,25.4166082 200.410978,33.768388 199.929424,39.1602738 L199.929424,39.4774198 C199.929424,40.5874306 199.929424,41.327303 199.876236,41.6974415 L199.876236,42.4907109 C199.876236,42.7548643 199.876236,42.8604448 199.82223,42.9130328 L200.944902,43.1241937 C201.105692,43.1775908 201.854822,43.1775908 203.190654,43.2305833 L204.79447,43.0716058 L204.313325,38.7371429 C204.313325,38.6849594 204.259728,38.5789744 204.259728,38.3152255 C204.152944,38.050263 204.152944,37.8386975 204.152944,37.6801245 C204.099347,37.5749486 204.099347,37.3633831 204.046568,36.9928401 C204.046568,36.6231062 204.046568,36.3585482 203.992562,36.1469827 C203.886186,35.7246608 203.778992,35.0899644 203.725396,34.2966949 C203.672617,34.1385265 203.618202,33.8213805 203.618202,33.3456616 C203.511008,32.9229352 203.511008,32.6057892 203.458229,32.3942237 C203.404632,32.2356508 203.404632,31.9189093 203.298257,31.4423813 C203.298257,31.0200594 203.190654,30.6495164 203.190654,30.280187 L203.030681,29.3813371 C202.763515,27.1613154 202.388745,24.8353087 202.014794,22.5093021 C201.961197,22.2981411 201.640434,21.3467032 201.586837,21.1877257 Z M205.008858,21.8750101 L205.435997,23.7248934 L205.435997,23.9360543 C205.435997,24.2010168 205.543191,24.7827208 205.703163,25.6811661 L206.077523,27.9011878 L206.50548,30.491348 L206.933028,33.5572271 L207.895727,39.3192513 C208.270088,41.8560144 208.537663,43.4413397 208.644039,44.0234482 C208.80442,45.0278785 208.911205,45.8207434 208.964393,46.5080278 C209.018399,46.8777618 209.125184,47.6706267 209.231968,48.83363 L209.499135,50.5253448 L209.553141,51.2122247 C209.606329,51.5823631 209.713522,52.1640671 209.873495,52.850947 L210.194667,54.4370813 C210.247855,54.5952497 210.247855,54.8068152 210.301452,55.1239612 C210.355049,55.4411071 210.355049,55.6526726 210.408646,55.8108411 C210.461834,56.075399 210.515021,56.287369 210.515021,56.4455375 L210.515021,56.7096909 C210.515021,56.8160805 210.301452,56.8682639 209.873495,56.9208519 L209.606329,56.9208519 C209.445947,56.9742489 209.339162,56.9742489 209.285565,56.9742489 C208.750823,56.9742489 208.376872,56.9742489 208.216491,56.9208519 C208.109297,56.9742489 207.948915,56.9742489 207.788534,56.9742489 C207.574964,56.9742489 207.46777,56.9208519 207.414582,56.8160805 C207.254201,56.392545 207.093819,55.7056651 206.933028,54.7012347 C206.665862,53.8027894 206.398696,52.481213 206.13112,50.6313298 C205.863954,48.781042 205.650794,47.6706267 205.543191,47.1949077 L205.328803,46.1378894 L204.474116,46.3498594 L204.366922,46.3498594 C204.313325,46.3498594 204.152944,46.3498594 203.992562,46.2964624 L203.083869,46.2964624 C202.816703,46.3498594 202.655912,46.3498594 202.549127,46.3498594 L201.266074,46.3498594 C200.944902,46.3498594 200.677735,46.3498594 200.517763,46.2964624 L199.555473,46.1908819 C199.448279,46.6666008 199.395091,47.1949077 199.341903,47.8291996 C199.287897,48.0407651 199.287897,48.3583156 199.287897,48.781042 C199.287897,49.2571655 199.287897,49.5739069 199.23471,49.7854724 C199.181113,50.0500304 199.127107,50.4723523 199.127107,50.9480712 C199.073919,51.4237902 199.073919,51.7939286 199.020731,52.0050896 C198.966725,52.3756326 198.913537,53.0625124 198.860349,54.0665383 C198.699968,55.6000846 198.592774,56.392545 198.486398,56.5515225 C198.432801,56.7096909 198.164817,56.8160805 197.577296,56.8682639 C197.202936,56.9208519 196.668603,56.9742489 195.919883,56.9742489 C195.385141,56.9208519 195.118384,56.7626834 195.064378,56.604515 C195.118384,56.4989345 195.118384,56.3395525 195.170753,56.075399 C195.170753,55.8642381 195.170753,55.7056651 195.224759,55.6000846 L195.224759,55.4945041 C195.224759,55.2299462 195.224759,54.8594032 195.277947,54.4900738 L195.492335,52.533801 C195.545523,51.8469211 195.545523,51.3182097 195.545523,50.8950787 L195.545523,50.7361012 C195.59912,50.2611913 195.652716,49.6794874 195.75991,49.098188 L195.919883,47.6180387 L196.133861,45.080871 C196.187049,44.6055566 196.293834,44.0768452 196.347022,43.4947367 C196.400619,42.9130328 196.454625,42.2791454 196.508222,41.5914565 C196.561819,40.9049811 196.561819,40.3232772 196.614597,39.9005507 L196.7222,38.4204014 L196.7222,38.3674089 L197.042554,34.6672379 L197.202936,32.9229352 L197.523699,29.0637867 L197.523699,28.9056182 C197.523699,28.4303038 197.577296,27.9541803 197.630484,27.5310494 L197.898059,24.6237433 C197.951247,23.8312829 198.058032,22.985021 198.218414,22.1391636 C198.378795,21.2933062 198.378795,21.2407182 198.646371,20.1307074 C198.860349,19.073689 199.020731,18.2804196 199.127107,17.6991202 C199.127107,17.4875547 199.448279,17.3819742 200.090215,17.3819742 L201.373268,17.3819742 C201.74681,17.4349667 202.068391,17.4349667 202.228773,17.4349667 C203.137466,17.6461277 204.099347,17.8051052 204.099347,17.8576932 C204.901664,20.7649993 204.954852,21.5048717 205.008858,21.8750101 L205.008858,21.8750101 Z" id="Fill-19" fill="#FFFFFE"></path>
                <path d="M15.3189622,22.2584714 L15.3189622,24.0942115 C15.3189622,24.4611994 15.2671595,24.933041 15.2149614,25.5625634 C15.2149614,25.719844 15.2149614,25.9819782 15.2671595,26.3489661 L15.2671595,27.5551838 C15.2671595,28.4464402 15.2671595,29.1279892 15.2149614,29.6002311 C15.1631587,31.6452783 15.111356,32.7466423 15.0595533,32.9035226 C15.0595533,32.9567499 15.0595533,33.0608032 15.111356,33.2188841 L15.111356,33.4810184 C15.111356,33.6907257 15.111356,33.9524598 15.0595533,34.3198479 C15.0081461,34.6876362 15.0081461,34.8965432 15.0081461,35.054224 L15.0081461,36.5750027 C15.0081461,36.9415905 15.0081461,37.3610052 15.0595533,37.7283934 C15.111356,38.0957815 15.111356,38.3050887 15.111356,38.4627694 L15.2149614,38.4627694 C15.4743702,38.4627694 15.7333836,38.4095422 15.992397,38.3050887 C16.3550158,38.1478082 16.6140292,37.938501 16.7694372,37.7812204 C17.1324514,37.5190862 17.3914648,37.2037247 17.5986755,36.7322833 C17.8576889,36.417322 18.168505,35.9454804 18.5311238,35.2643316 C18.7905326,34.0048866 18.9459407,33.1660571 18.9977434,32.7466423 C19.049546,32.6413884 19.049546,32.4845081 19.1013487,32.2748007 L19.1013487,29.2852698 C19.1013487,28.918682 19.049546,28.3415865 18.9977434,27.6596373 L18.9977434,26.9260616 C18.9459407,26.5586735 18.9459407,26.3489661 18.9459407,26.1912854 C18.9459407,26.034405 18.894138,25.6145901 18.8423353,24.9854679 C18.7905326,24.3563457 18.73873,23.8841039 18.6865318,23.6219697 C18.6347291,23.4126625 18.6347291,23.150128 18.5833219,22.8879938 C18.5311238,22.6258596 18.4793211,22.415752 18.4793211,22.3637253 C18.4275184,22.2064448 18.4275184,22.0487641 18.4275184,21.8914835 L18.4275184,21.734203 C17.9094916,21.2095343 17.5986755,20.9474001 17.4950702,20.8953734 C17.1324514,20.7380929 16.8212399,20.6852658 16.4590166,20.6852658 C16.3550158,20.6332392 16.147805,20.6332392 15.8883962,20.6332392 C15.6293828,20.6332392 15.4221721,20.6332392 15.2671595,20.6852658 C15.2671595,21.1575076 15.2671595,21.6817761 15.3189622,22.2584714 Z M18.73873,47.2720806 C18.6347291,46.2235436 18.4793211,45.2274335 18.0648997,44.4406306 C17.9612943,44.1260695 17.8058863,43.8639353 17.5468729,43.6018011 C17.287464,43.3396668 17.0802533,43.2344129 16.8730426,43.1823863 C16.0960024,42.867425 15.5779756,42.7105447 15.2149614,42.7105447 L15.1631587,42.7105447 C15.0595533,42.7629715 15.0081461,43.5497744 15.0081461,44.9652993 C14.9559479,46.3816246 14.9559479,48.1117105 14.9559479,50.1039307 C14.9559479,52.0449247 14.9559479,53.4080227 14.9045407,54.1948256 C14.9559479,54.1948256 15.111356,54.2472525 15.4743702,54.3000795 L15.9405943,54.3000795 L16.4068184,54.2472525 C16.8730426,54.1415984 17.2356613,53.9322912 17.4950702,53.6705572 C17.9094916,53.303169 18.168505,52.7785003 18.3239131,52.1493782 C18.5833219,51.4154023 18.73873,50.4713189 18.73873,49.3179282 L18.73873,47.2720806 Z M11.6915882,32.7986689 L11.6915882,25.7718706 C11.6397855,25.5097364 11.6397855,25.1951753 11.6397855,24.7233337 C11.6397855,24.0942115 11.6397855,23.6219697 11.6915882,23.3598354 L11.6915882,17.8534157 C11.6915882,17.6961351 11.8469962,17.5912814 12.209615,17.4864277 L12.3654185,17.4864277 C12.4690238,17.4864277 12.6762346,17.4864277 12.935248,17.4340009 C13.1942614,17.3819742 13.3496694,17.3819742 13.5050775,17.3819742 L14.5933292,17.3819742 C15.0081461,17.3819742 15.3189622,17.4340009 15.5779756,17.4864277 C16.4590166,17.6441085 17.1324514,17.748562 17.5468729,17.8534157 C18.2207031,17.9586696 18.7905326,18.1155499 19.2049541,18.3256575 C19.5675728,18.4305112 19.8783889,18.6402186 20.1896004,18.9547797 C20.5522192,19.2169139 20.7594299,19.5839018 20.914838,19.95129 C21.1738514,20.4231316 21.3814575,21.0002271 21.4850629,21.5769224 C21.5368656,21.734203 21.6404709,21.9963372 21.6918782,22.2584714 C21.7440763,22.6778862 21.795879,22.9400205 21.795879,23.0977012 C21.8476817,23.4646891 21.951287,24.1462381 22.0030897,25.1427484 C22.0548924,25.6145901 22.1066951,26.401393 22.1584977,27.502757 C22.1584977,27.7648912 22.1584977,28.2367328 22.2103004,28.865855 L22.2103004,30.3342069 C22.1584977,31.0161561 22.0548924,32.1171199 22.0030897,33.7431526 L21.8476817,35.4732385 C21.6918782,36.0507343 21.5886683,36.5750027 21.5368656,36.9415905 C21.4850629,37.0996714 21.3814575,37.3089786 21.2774567,37.5711128 C21.1738514,37.8336473 21.070246,38.0437549 21.0184433,38.2006352 C20.8630353,38.4627694 20.6558246,38.6720766 20.3450085,38.8293572 C20.1896004,39.0394648 19.9819943,39.2491722 19.6711782,39.5113064 L18.7905326,40.0884019 C18.5311238,40.2452822 18.4275184,40.4025628 18.4275184,40.4553898 C18.4275184,40.5082169 18.5311238,40.5598433 18.73873,40.6650972 L19.4121648,41.0320852 C19.6711782,41.1377393 19.8265862,41.2417925 19.8783889,41.2946196 C20.1377978,41.4514999 20.3968112,41.766061 20.7076273,42.1854758 C20.8630353,42.5008373 21.070246,42.9722787 21.2256541,43.6018011 C21.4332602,44.4406306 21.5368656,45.0697528 21.5886683,45.4891676 C21.6404709,45.9089826 21.6918782,46.2235436 21.6918782,46.4856779 C21.6918782,46.5385049 21.6918782,46.6953853 21.7440763,46.9583199 L21.7440763,47.4821882 C21.795879,47.534615 21.795879,47.5878423 21.795879,47.7447226 L21.795879,47.95443 C21.7440763,48.0588835 21.7440763,48.1641374 21.7440763,48.2165642 C21.7440763,48.3738448 21.7440763,48.4782983 21.795879,48.5315255 C21.7440763,48.5839524 21.7440763,48.6884059 21.7440763,48.79406 L21.7440763,49.1602475 C21.6918782,49.3179282 21.6918782,49.4223817 21.6918782,49.5276356 L21.6918782,50.2620117 C21.6404709,50.4192922 21.6404709,50.6814265 21.6404709,51.0480142 C21.5886683,51.520256 21.5368656,51.8876441 21.5368656,52.0969513 L21.5368656,52.3070589 C21.4850629,52.4643395 21.4850629,52.62162 21.4332602,52.7785003 C21.3814575,52.9353807 21.3814575,53.0938618 21.3292594,53.2511424 C21.2774567,53.3555959 21.2774567,53.4604496 21.2774567,53.5653033 C21.1220487,53.9322912 21.0184433,54.2472525 20.9666407,54.5089865 C20.7594299,54.9812283 20.5004165,55.3478161 20.2414031,55.6103505 C19.5157702,56.3971534 18.2721104,56.8165682 16.5626219,56.9214219 C16.2514104,56.9742489 15.7851863,56.9742489 15.111356,56.9742489 C14.9559479,56.9214219 14.6451319,56.9214219 14.230315,56.9214219 C13.816289,56.9214219 13.5050775,56.9214219 13.2978667,56.9742489 C12.935248,56.9214219 12.4690238,56.8697954 11.7951936,56.8697954 C11.7433909,56.8165682 11.6915882,56.7121147 11.6397855,56.5540337 C11.6915882,56.3447266 11.7433909,56.0825923 11.7433909,55.7680312 L11.7433909,54.7715209 C11.6915882,54.5618136 11.6397855,54.4041328 11.6397855,54.2472525 C11.6397855,54.1415984 11.6397855,53.984718 11.6915882,53.8278377 L11.6915882,51.3101484 C11.6915882,51.1008412 11.6915882,50.9435607 11.6397855,50.7858799 L11.6397855,50.0002776 C11.6397855,49.6324893 11.6397855,49.4223817 11.5879828,49.2651012 C11.6397855,49.055794 11.6397855,48.79406 11.6397855,48.4266718 C11.6397855,48.3738448 11.6397855,48.3214179 11.6915882,48.2689911 L11.6915882,47.8495763 C11.6397855,47.7447226 11.6397855,47.6394687 11.6397855,47.5878423 C11.6397855,47.534615 11.6397855,47.3777347 11.6915882,47.1680273 C11.6915882,46.9583199 11.6915882,46.8010394 11.7433909,46.6953853 C11.6915882,46.4336512 11.6397855,46.2759705 11.6397855,46.2235436 C11.6397855,46.171517 11.6397855,46.1190901 11.6915882,46.0658629 L11.6915882,42.7105447 C11.6915882,42.0281953 11.6915882,41.504327 11.7433909,41.1377393 C11.6915882,40.9792581 11.6915882,40.6650972 11.6915882,40.2981093 L11.6915882,38.4627694 C11.7433909,38.2006352 11.7433909,37.938501 11.7433909,37.7812204 C11.6915882,37.4138323 11.6915882,36.8895638 11.6915882,36.1547876 L11.6915882,32.7986689 L11.6915882,32.7986689 Z" id="Fill-20" fill="#FFFFFE"></path>
                <path d="M31.474966,18.3973072 L31.474966,28.7626736 C31.4223922,29.6173474 31.3698183,30.2587605 31.3698183,30.6322726 C31.3698183,30.9535908 31.4223922,31.5407713 31.474966,32.3954451 L31.474966,36.4037673 C31.474966,36.9909478 31.5275398,37.3652754 31.5275398,37.9528636 C31.5275398,38.3802005 31.4223922,38.5942767 31.4223922,39.0212059 C31.4223922,41.2651324 31.4223922,42.4941337 31.474966,44.7380602 C31.474966,45.8064025 31.5275398,47.4097314 31.5275398,47.4097314 C31.5801136,47.7306418 31.5275398,48.2118036 31.5275398,48.852809 C31.5275398,49.333563 31.5275398,49.6536579 31.474966,49.9207435 C31.5275398,50.295071 31.5801136,50.5621566 31.5801136,50.7224079 C31.5801136,50.9899012 31.5275398,51.363821 31.474966,51.844575 C31.5275398,52.0586513 31.5275398,52.1654855 31.5275398,52.2184948 L31.5275398,52.859908 L33.8937626,52.859908 C34.4724758,52.859908 35.2614843,52.8056753 36.2603867,52.7530737 C37.2071166,52.7000644 37.7328547,52.6458317 37.8380023,52.6458317 L37.9957237,52.6458317 C38.1012727,52.6458317 38.2064203,52.8056753 38.2585928,53.1274013 C38.3111666,53.5013211 38.4163142,53.8748331 38.468888,54.3564026 C38.5214618,54.8363411 38.574437,55.2106687 38.6266094,55.3713278 C38.574437,56.2255938 38.468888,56.6537463 38.3111666,56.6537463 L38.2585928,56.6537463 C38.2064203,56.7067556 38.1012727,56.7067556 37.9431499,56.7601727 C37.7328547,56.8144054 37.5751332,56.8670069 37.4170105,56.9208318 C37.2071166,56.8670069 37.0489938,56.8144054 36.8916737,56.8144054 C36.8386986,56.8144054 36.733551,56.8144054 36.5758295,56.8670069 L36.1026652,56.8670069 C36.0500914,56.9208318 35.9445425,56.9208318 35.89237,56.9208318 C35.8393949,56.9208318 35.7872224,56.9208318 35.6820748,56.8670069 L35.5243533,56.8670069 C35.1559353,56.8670069 34.8930663,56.8670069 34.682771,56.8144054 C34.2096067,56.8670069 33.7886149,56.9208318 33.4731721,56.9208318 C33.1051554,56.9208318 32.7897125,56.9208318 32.5264422,56.8670069 C32.0532779,56.9208318 31.3172445,56.9208318 30.4230884,56.9208318 C30.265367,56.9208318 30.002498,56.9208318 29.6870551,56.9742489 L29.055768,56.9742489 C28.6351776,56.9742489 28.3719072,56.9208318 28.3197347,56.8144054 L28.2145871,56.3866607 L28.2145871,56.0653425 C28.1616119,55.9050911 28.1616119,55.7452476 28.1616119,55.585404 L28.1616119,55.4777542 C28.1616119,55.4251527 28.1616119,55.3179107 28.1094395,55.1580671 L28.1094395,54.8363411 C28.1094395,54.6764975 28.1094395,54.5696633 28.1616119,54.5162462 C28.1094395,54.3564026 28.1094395,54.0889093 28.1094395,53.7688144 C28.1094395,53.340662 28.1094395,53.0735764 28.0564643,52.9133251 C28.0042918,52.7530737 28.0042918,52.539813 28.0042918,52.2184948 C28.0042918,51.7381486 28.0042918,51.363821 28.0564643,51.0967355 L28.0564643,49.0660696 C28.0564643,43.6701257 28.0564643,39.5019599 28.1094395,36.5636109 L28.1094395,35.3346096 C28.1094395,34.8008462 28.1094395,34.4261109 28.0564643,34.2132579 C28.1094395,33.8385226 28.1616119,33.3043515 28.1616119,32.609929 L28.1616119,31.6480132 C28.1616119,31.1668515 28.1616119,30.8463488 28.2145871,30.5792632 C28.2145871,29.991675 28.1616119,29.6173474 28.1094395,29.4575039 C28.1616119,28.9763421 28.2145871,28.3353367 28.2145871,27.5870894 C28.2667596,27.2131696 28.2667596,26.6251736 28.2667596,25.8777418 C28.3197347,22.8855679 28.3719072,21.0151534 28.3719072,20.2673139 C28.3719072,20.1604796 28.3719072,19.9464034 28.4248823,19.6793179 C28.4248823,19.4122323 28.4248823,19.1451467 28.4774561,18.9844876 C28.4248823,18.8242363 28.4248823,18.6105678 28.4248823,18.3973072 C28.4248823,18.2900652 28.4248823,18.2366481 28.4774561,18.2366481 C28.4248823,18.1298138 28.4248823,18.0225718 28.4248823,17.9161454 C28.4248823,17.8093112 28.4248823,17.7554863 28.3719072,17.7024769 C28.5300299,17.4888085 28.8454728,17.3819742 29.3190384,17.3819742 C30.0550718,17.4888085 30.3705146,17.5422256 30.5282361,17.5952349 C30.5808099,17.5422256 30.6859575,17.5422256 30.7911051,17.5952349 L30.9488265,17.6490598 C31.2116956,17.6490598 31.3698183,17.7024769 31.474966,17.8093112 L31.474966,18.3973072" id="Fill-21" fill="#FFFFFE"></path>
                <path d="M50.8439626,41.518344 L51.532219,41.518344 C51.8498757,41.518344 52.0620511,41.518344 52.2204753,41.4662345 L52.9620787,41.4125093 L52.8561931,40.3541623 C52.6969605,39.2958154 52.6444219,38.4491378 52.5910749,37.7612123 C52.5910749,37.6016523 52.5910749,37.389983 52.5385363,37.0195615 C52.4855935,36.6487361 52.4855935,36.331636 52.4855935,36.1195627 L52.1679367,32.6791272 C52.0087041,31.1445241 51.9028185,29.8207825 51.7969329,28.8157569 C51.6910473,27.8095194 51.532219,26.5920164 51.3204478,25.163248 C51.1616194,23.7336717 50.9498482,22.4636554 50.6851342,21.2461525 C50.6851342,21.1932351 50.6317872,21.1403178 50.5259016,21.1403178 C50.4729588,21.1403178 50.420016,21.1403178 50.2611876,21.1932351 L49.9964736,21.1932351 C49.9435309,21.1932351 49.8905881,21.1932351 49.8376453,21.1403178 L49.4670457,23.0986636 C49.2019275,24.7395053 49.0430991,25.7453389 48.9372135,26.221595 L48.6195567,28.3386928 C48.5666139,28.8157569 48.4607283,29.6087092 48.4077855,30.667864 C48.3548427,31.726211 48.3018999,32.362027 48.2489572,32.6266138 L47.9308962,35.5374718 C47.5602966,37.389983 47.3485254,39.2958154 47.2955826,41.1483265 L47.2955826,41.3595919 C47.9308962,41.518344 48.4607283,41.5716653 48.8313279,41.5716653 C48.9372135,41.518344 49.0960419,41.518344 49.3607559,41.518344 L50.8439626,41.518344 Z M53.968396,52.4225491 C53.915049,52.1579624 53.8625104,51.3637982 53.7032778,50.1462953 C53.5973922,48.9287924 53.4915066,48.1879495 53.385621,47.2879506 C53.2797355,46.3883557 53.1738499,45.9120996 53.0150215,45.8062649 L52.9091359,45.8062649 C52.8561931,45.8062649 52.6969605,45.8062649 52.4326507,45.8583744 L50.9498482,45.8583744 C50.6317872,45.8062649 50.3670732,45.8062649 50.155302,45.8062649 L49.2548703,45.8062649 C48.9901563,45.7533476 48.8313279,45.7533476 48.6724995,45.7533476 C48.5666139,45.7533476 48.4077855,45.7533476 48.1960144,45.8062649 L47.7720678,45.8062649 C47.0838114,45.8062649 46.660269,45.9120996 46.5014407,46.0704477 C46.4480937,46.3354384 46.2892653,47.4992161 46.0774941,49.6171218 C45.7598373,51.7346236 45.7068945,51.8933757 45.6539517,52.2637971 C45.6539517,52.6338146 45.6010089,53.1108786 45.5480661,53.6929694 C45.4421805,54.2746563 45.3362949,54.8571511 45.2300052,55.4921592 L44.9652912,56.7096622 C44.75352,56.7633874 44.488806,56.8154969 44.224092,56.8154969 L43.1648319,56.8154969 C42.1059759,56.8154969 41.5765479,56.7096622 41.5236052,56.4446715 L41.5236052,56.3396447 C41.5236052,56.1800848 41.6294907,55.756746 41.7353763,55.0688205 C41.9471475,54.380491 42.0000903,53.9050428 42.0000903,53.6929694 C42.1585146,52.7400532 42.2648043,52.3167144 42.4765755,50.1462953 C42.7416937,47.9762801 42.8475793,46.6525385 42.9001179,46.2296037 C42.9534649,45.8583744 43.0060035,45.3829261 43.1118891,44.8000274 C43.2181789,44.1654232 43.2707175,43.7420844 43.3240644,43.4774977 L43.4824887,42.0479214 L43.7472027,40.142089 C43.8005496,39.9308235 43.9064352,39.2958154 43.959378,38.2895779 C43.959378,38.1304219 44.0123208,37.8662391 44.0652636,37.4429003 C44.1182064,37.0195615 44.1711492,36.7020574 44.224092,36.5437093 L44.4362674,34.8491424 C44.8594056,31.4091108 45.0711768,29.6087092 45.0711768,29.5036824 L45.4421805,27.4390979 C45.4951233,26.9628418 45.6010089,26.2745123 45.8127801,25.2686788 C45.8127801,25.1099267 45.9186657,24.4749186 46.1308411,23.2578196 C46.2892653,22.4636554 46.3951509,21.6165739 46.5014407,20.8228137 L46.8190974,18.6527985 C46.924983,18.0698998 46.9779258,17.6998823 47.0308686,17.5940476 C47.0838114,17.5411302 47.1367542,17.5411302 47.2426398,17.5411302 C47.2955826,17.5411302 47.4014682,17.5411302 47.5602966,17.5940476 L48.1430716,17.5940476 C48.3548427,17.4352955 48.9372135,17.3819742 49.8905881,17.3819742 C51.5847576,17.3819742 52.8028461,17.5411302 53.5973922,17.8586343 C54.1272244,20.7694924 54.3915342,22.6224075 54.4448812,23.310333 L54.5503626,25.0574133 L55.2919659,32.4670538 C55.5566799,35.7495452 55.8217981,38.1841471 55.9806265,39.7716675 L56.4571117,43.5300111 C56.5100545,43.9004325 56.5629973,44.4300099 56.6688829,45.0646141 L56.8277112,46.3883557 C56.9865396,47.7112894 57.0924252,48.4521323 57.0924252,48.6642056 L57.0924252,48.876279 C57.0924252,49.4583698 57.145368,49.8817086 57.3041964,50.7817074 C57.4104862,51.6813023 57.463429,52.2104758 57.5163718,52.4225491 C57.5163718,52.6875398 57.5163718,53.004236 57.5693146,53.4813 L57.728143,54.380491 C57.7810858,55.1746552 57.8340286,55.5458845 57.8340286,55.5979939 L57.8340286,55.8625807 C57.8340286,56.1279753 57.8869714,56.4446715 57.9399142,56.7096622 C57.8869714,56.7633874 57.6222574,56.8154969 57.0394824,56.8688182 C56.4571117,56.9217355 55.8217981,56.9742489 55.3978515,56.9742489 C54.8154808,56.9742489 54.4974198,56.9217355 54.4974198,56.7633874 L54.4974198,56.7096622 C54.3389956,55.9688193 54.1272244,53.7462907 53.968396,52.4225491 L53.968396,52.4225491 Z" id="Fill-22" fill="#FFFFFE"></path>
                <path d="M75.3218884,55.4543351 C75.3218884,56.3450846 75.2687087,56.8166579 75.0559901,56.8166579 L71.1726568,56.8166579 C70.4277356,56.8166579 69.6832203,56.7642608 68.9382991,56.6598668 L66.6511676,56.9742489 C66.1725507,56.8698548 65.800293,56.8166579 64.9490125,56.8166579 L63.2468573,56.8166579 C63.0873183,56.8166579 63.0341387,56.7122638 63.0341387,56.5022757 C63.0341387,55.6111262 63.5127556,54.2488035 63.6722946,53.2532599 L64.6299345,49.2178888 C65.0553718,47.3831928 65.3744498,46.2296583 65.4808091,45.758485 C65.5875744,45.4441028 65.7467074,44.9197326 65.8530667,44.1857742 L66.1725507,42.6658604 L66.8107066,40.045209 L67.5020422,37.2677665 L68.0342448,35.0138943 C68.2469635,33.9139567 68.4065025,33.3367894 68.4065025,33.2843924 C68.4596821,33.0744043 68.5128618,32.8124192 68.6192211,32.4460399 C68.6724008,32.0788608 68.8851194,31.8692727 68.9382991,31.7120816 L68.9382991,31.5548905 C68.8851194,31.5028934 68.8851194,31.4496965 68.8851194,31.3976994 C68.8851194,31.2409083 68.9918847,30.8733291 69.098244,30.3493589 L71.1726568,21.6494522 C70.6940399,21.6494522 69.7895797,21.6494522 68.9918847,21.5970552 L63.8850133,21.5970552 C63.7254743,21.6494522 63.140498,21.6494522 63.0341387,21.6494522 C63.0341387,21.6494522 62.9277793,21.7018493 62.9277793,21.6494522 C62.8745997,21.3350701 62.9277793,20.8106998 62.9277793,20.8106998 C62.9277793,20.5487147 62.7682403,20.1819355 62.7682403,19.1863919 C62.82142,19.1339949 62.82142,19.0288009 62.82142,18.8720097 C62.9277793,18.5568276 62.980959,18.3996365 63.0873183,18.3996365 C63.140498,18.3996365 63.2468573,18.3996365 63.4063963,18.3476395 L63.9913726,18.3476395 C64.1509116,18.3996365 64.2044972,18.3996365 64.3108565,18.3996365 C64.5767548,18.3996365 65.0553718,18.3996365 65.6939337,18.3476395 L69.417322,18.3476395 C71.5449145,18.3476395 72.6620934,18.3476395 72.8216324,18.3996365 C74.4706079,18.3996365 75.2687087,18.5048306 75.2687087,18.7144187 L75.1623494,19.8675533 C75.1087638,20.2343325 75.0024045,20.7059057 74.8432714,21.229876 C74.7896858,21.3350701 74.7365062,21.5970552 74.6833265,22.0162314 C74.5769672,22.3834106 74.4706079,22.6973928 74.3642485,22.9593779 C74.3642485,23.3269571 74.2578892,23.9553215 73.9915849,24.951265 L73.6197332,26.5759728 L69.6832203,42.9282455 L69.417322,44.0809801 C69.3105567,45.1289207 69.3105567,44.7629414 69.098244,45.6012939 C68.9918847,45.810482 69.0446584,46.1252642 68.8851194,46.4916434 L68.5128618,47.9067632 C67.8211202,50.7370026 67.4488626,52.7808867 67.1829643,53.5672421 C68.1406042,53.6200391 69.3105567,53.6200391 70.5872746,53.6200391 L73.6729129,53.6200391 C74.3642485,53.6724362 74.7896858,53.6724362 74.9496308,53.7240333 C75.1623494,53.7240333 75.3218884,54.1432095 75.3218884,55.4543351" id="Fill-23" fill="#FFFFFE"></path>
                <path d="M81.2168506,54.7755079 C81.1665616,54.6727851 81.1665616,54.4677406 81.1665616,54.2109334 C81.1158798,53.9541262 81.1158798,53.7486805 81.1158798,53.6459576 C81.1158798,51.2833315 81.1158798,49.2798342 81.1665616,47.6362682 L81.1665616,45.6841323 C81.2168506,45.4786866 81.2168506,45.1191565 81.2168506,44.5541807 C81.2168506,44.142888 81.2168506,43.8351206 81.1665616,43.6296749 C81.2168506,43.3728677 81.2671395,43.0133376 81.2671395,42.6538076 L81.2671395,40.9588801 C81.2671395,40.7016717 81.2671395,40.4966272 81.3174284,40.3939043 L81.3174284,36.4900339 C81.4180063,35.6678496 81.4682952,34.8460666 81.4682952,33.9733234 L81.4682952,31.4048503 C81.619162,29.4017543 81.669058,27.9632328 81.669058,26.9869642 L81.7197398,22.5181179 C81.7197398,21.9535434 81.7696359,21.286246 81.8203177,20.618146 C81.7696359,20.4636605 81.7696359,20.2072545 81.7696359,19.9504474 L81.8203177,17.9469501 C81.8203177,17.8951874 81.8203177,17.7928657 81.7696359,17.6901429 L81.7696359,17.5870187 C81.7696359,17.5360586 82.5746516,17.4333357 84.2341861,17.3819742 C85.1900686,17.3819742 85.9444024,17.3819742 86.4975806,17.4333357 C86.6987363,17.3819742 88.5091377,17.3819742 88.961738,17.3819742 C89.3640494,17.4333357 89.615494,17.4850984 89.7663608,17.4850984 C90.219354,17.5360586 90.5210876,17.6387814 90.5713765,17.6901429 L90.5713765,17.741103 C90.6216654,17.7928657 90.6216654,17.7928657 90.6216654,17.8442272 L90.7218504,18.1010344 L90.7218504,18.5632873 C90.7725322,18.7173716 90.7725322,18.8204957 90.7725322,18.8714559 L90.7725322,19.230986 C90.7725322,19.8986847 90.7218504,20.2582147 90.6216654,20.2582147 L90.5713765,20.3099774 C90.5210876,20.3609376 90.4201168,20.3609376 90.3199319,20.412299 L90.0178054,20.412299 C89.8673315,20.4636605 89.7663608,20.4636605 89.6657829,20.4636605 L88.7102934,20.4636605 C88.5091377,20.4636605 86.6987363,20.5150219 86.2964249,20.5663833 C85.542091,20.5150219 84.8380461,20.5150219 84.7877572,20.4636605 L84.7877572,24.0593623 L84.7374682,25.9601367 C84.7374682,26.9869642 84.6867864,28.3741243 84.6364975,30.1208144 C84.5862086,31.8671033 84.6364975,33.0484163 84.5862086,33.716115 L84.5862086,35.8227364 L85.2902535,35.7709737 C85.3409353,35.7709737 85.542091,35.7709737 85.8434317,35.7196123 L88.8611601,35.7196123 C89.7160719,35.7196123 90.1690651,35.7709737 90.1690651,35.9246568 C90.1690651,35.9760182 90.1187762,36.2332267 90.1187762,36.7464398 L90.1187762,38.1335998 C90.0684872,38.6476155 89.9679094,38.9036201 89.8166497,38.9036201 C89.565598,39.006343 87.2519145,39.058507 86.3970028,39.058507 L86.246136,39.058507 L84.7877572,39.006343 C84.5862086,39.006343 84.4856307,39.1608286 84.4856307,39.5203586 L84.4856307,39.9826116 C84.5359197,40.2394188 84.5359197,40.3939043 84.5359197,40.4966272 L84.5359197,40.7530331 C84.4353418,41.2666475 84.3850529,42.3456389 84.3850529,44.0401651 L84.3347639,47.2771394 C84.3347639,47.4817826 84.3347639,47.7389911 84.2848679,48.0985211 L84.1838972,52.5673674 C84.4353418,52.5156047 84.6867864,52.5156047 85.0392018,52.5156047 C85.3912243,52.5156047 85.6929578,52.5156047 85.8434317,52.4642433 C85.9946914,52.4642433 86.1958471,52.4642433 86.4472917,52.5156047 L90.4704058,52.5156047 C90.6216654,52.5673674 90.7218504,53.1323432 90.7218504,54.2622948 C90.7218504,55.2895236 90.6719543,55.8031379 90.5210876,55.8031379 C90.2696429,55.9576235 89.9176205,56.0085837 89.565598,56.0085837 L89.1126048,56.0085837 C88.8611601,55.9576235 88.6600044,55.9576235 88.5091377,55.9576235 L88.2074041,55.9576235 C87.9056705,55.9054596 85.7935357,55.9054596 84.9386239,55.9054596 L83.1278297,55.9054596 C82.976963,55.9576235 82.7255183,55.9576235 82.4237848,55.9576235 C82.0717623,55.9576235 81.669058,55.8544994 81.2671395,55.5976922 L81.2671395,55.4957718 C81.2168506,55.3926477 81.2168506,55.3404837 81.2168506,55.2895236 L81.2168506,54.7755079" id="Fill-24" fill="#FFFFFE"></path>
                <path d="M128.377647,38.5309057 L128.433476,37.7279569 L128.43187,37.7139123 C128.416205,37.5963391 128.38327,37.5489888 128.348728,37.5040462 C128.348728,37.5040462 128.347121,37.500836 128.345916,37.4908041 L128.329047,37.3828615 L128.292095,37.3780462 C128.272816,37.2961864 128.25434,37.1304603 128.242692,37.0245241 C128.200117,36.6360911 128.180436,36.4587281 128.010537,36.4587281 C127.978003,36.4587281 127.935428,36.4683587 127.897673,36.5056771 C127.886828,36.1914798 127.870762,35.8002379 127.849073,35.3383718 L127.755488,33.5615318 L127.483168,32.0635769 L127.183938,30.4516603 L125.615488,27.7282155 L125.605045,27.7117633 L123.537342,25.7001781 L123.544973,25.6929551 L123.37146,25.5171973 L120.994887,23.5513572 L118.946061,22.3896698 L118.291771,22.0413642 L117.026969,21.5329504 L117.054683,21.4695491 L117.036207,21.4599186 C116.92977,21.407753 116.740592,21.3230842 116.457025,21.1998932 L115.398272,20.7476577 L112.541725,20.5161227 C112.313185,20.4972629 112.080628,20.4816132 111.843252,20.465161 L108.988312,20.27897 L105.840567,21.3347211 L103.16637,23.1368415 L103.156329,23.1436631 C102.008007,24.0746182 101.237639,24.7030129 100.732361,25.1199363 L100.47209,25.3771527 C100.168843,25.678108 99.8531451,25.9971206 99.4784041,26.3811396 L98.4481674,27.4413048 L97.8822401,28.7695209 C97.6737829,29.2554633 97.4838016,29.6884377 97.3010501,30.0969344 L97.1544472,30.4191572 L96.9548263,31.2180932 C96.9050215,31.4235453 96.8475853,31.6643096 96.8001904,31.90387 L96.7981821,31.930354 C96.7965755,31.9821184 96.7411476,32.2654176 96.6997775,32.4748825 C96.6323,32.767411 96.5559862,33.0848186 96.461598,33.468035 L96.1900814,34.4286843 C95.9964853,35.1112509 95.8442593,35.6682189 95.7297886,36.1621868 C95.717739,36.2139511 95.701673,36.2717345 95.6827953,36.3355371 L95.6008584,36.6120147 L95.611703,36.7556707 L95.6751639,38.2435937 C95.701673,39.0028036 95.7149275,39.2054468 95.744248,39.2865041 C95.8012826,39.4389881 95.8297998,39.5156314 95.8442593,39.581039 C95.8506857,39.610332 95.8547023,39.6408288 95.8583171,39.6797524 L95.8707683,39.8763765 L95.9932721,40.3635228 C96.0559298,40.5962616 96.1342519,40.8715353 96.2262301,41.1781085 C96.2523375,41.2671912 96.3125852,41.4293058 96.3816693,41.6171019 C96.4780657,41.8759235 96.5973563,42.1965412 96.6660387,42.4296812 L96.8303143,43.001095 L97.1982273,43.6603878 C97.3058699,43.845375 97.4098977,44.0215341 97.5203519,44.2077251 L97.6279946,44.3874958 C97.823599,44.7145339 98.0453107,45.0865146 98.3421313,45.5997437 L98.4710615,45.8172341 L99.1442298,46.6001191 C99.3334078,46.821221 99.5016999,47.0210553 99.6579424,47.2080488 L100.104579,47.7437493 L100.56206,48.2846663 L101.24286,48.7974941 C101.490278,48.9784685 101.748941,49.1634557 102.030499,49.3604811 L103.177616,50.2043598 L105.321633,51.0787353 L106.108469,51.4166077 L109.015624,52.5690659 L109.645414,52.6741996 C109.839813,52.7071041 110.03341,52.7404098 110.229014,52.7757219 C110.645125,52.8499575 111.036334,52.9249957 111.425133,53.0056517 L111.80389,53.0526007 L112.240486,53.111588 L113.025313,52.8892823 L113.782025,52.685034 L115.336016,52.2777412 L116.901252,52.0714865 L118.500228,51.8543974 L119.486684,51.3331428 C119.842548,51.1433403 120.169492,50.968385 120.489207,50.8030602 L121.373242,50.3472132 L121.719065,50.0502707 L123.828539,48.2481504 L124.245052,47.7935072 C124.398483,47.620157 124.538258,47.46045 124.66518,47.3155902 C124.880867,47.0680043 125.066832,46.854928 125.228296,46.686393 C125.301396,46.6105523 125.399399,46.4977943 125.535961,46.3304632 L125.897849,45.8882595 L125.870537,46.0820747 L126.567804,44.4408652 C126.661389,44.4312346 126.708382,44.3405467 126.80759,44.1302793 L127.347812,42.8819167 L127.806498,41.5440701 L128.310973,39.8611281 L128.404557,38.7576253 L128.399738,38.7359565 C128.388491,38.6934215 128.379655,38.6420585 128.377647,38.5309057" id="Fill-25" fill="#FFFFFE"></path>
                <g id="Group-29" transform="translate(102.360515, 24.141631)">
                    <mask id="mask-4" fill="white">
                        <use xlink:href="#path-3"></use>
                    </mask>
                    <g id="Clip-27"></g>
                    <path d="M9.98928762,25.6476137 L7.95829733,25.190854 L6.28517308,23.9435488 L5.13437241,22.2418795 L4.37843066,20.2982554 L7.20597446,21.2361299 L8.81476324,20.1229779 L9.61453353,18.2548149 L9.02988496,16.2576892 L8.56264863,14.4410315 L8.75082987,12.5620884 L8.61130233,10.670768 L9.38413213,9.17871307 L9.48666678,10.9366788 L10.4014367,12.6363517 L11.4159266,14.2186406 L12.2920953,15.9075334 L12.8654851,17.707422 L13.2848719,19.5081091 L13.3994695,21.0971855 L15.2949532,20.1521243 L16.3584989,18.0811345 L16.3701597,20.3709217 L15.6648822,22.5281529 L14.1803412,24.2617634 L12.1135643,25.138151 L9.98928762,25.6476137 Z M16.9455601,11.2429154 L15.9833427,9.62509182 L15.5989383,7.78887009 L15.5165085,5.82248783 L14.8152519,7.74774575 L14.5016165,9.70654197 L14.6105847,11.8330297 L13.2716028,10.0770603 L12.4927415,8.13942514 L12.6427236,6.12353396 L13.1159913,4.12640826 L12.549035,2.15842894 L11.8373239,0.22558497 L11.7219222,2.25065925 L10.7412084,4.13359504 L9.06406318,5.73464943 L7.31856153,7.22870069 L5.83201013,9.00702893 L5.1834282,11.2576882 L5.38568283,13.4125237 L4.00206818,14.8826191 L2.13030817,14.0317844 L1.95097305,11.8226488 L1.47850946,13.6660573 L0.851238655,15.6136741 L0.340575881,17.6419425 L0.837969465,19.6682146 L1.24931436,21.7256293 L2.65906529,23.2875557 L4.17617604,24.7704275 L6.06160733,25.8336714 L8.24499226,25.8532354 L10.3346887,26.2465118 L12.4380564,25.945865 L14.4754802,25.3944794 L16.4216281,24.5991427 L18.2857483,23.5366973 L19.1864448,21.619824 L19.9576662,19.5172922 L19.5587863,17.3189367 L19.3384373,15.0602922 L17.9053648,13.2783705 L16.9455601,11.2429154 L16.9455601,11.2429154 Z" id="Fill-26" fill="#4E504F" mask="url(#mask-4)"></path>
                    <path d="M120.167797,39.6322848 L120.363216,39.6322848 C120.592009,39.6322848 120.776169,39.5564244 120.776169,39.3727623 C120.776169,39.2110598 120.65755,39.1032581 120.39659,39.1032581 C120.286013,39.1032581 120.211223,39.113639 120.167797,39.1240199 L120.167797,39.6322848 Z M120.156538,40.6368366 L119.742781,40.6368366 L119.742781,38.8648966 C119.906032,38.8329554 120.135227,38.8109958 120.428757,38.8109958 C120.765714,38.8109958 120.917707,38.8648966 121.048388,38.9399585 C121.1465,39.0162182 121.2233,39.1567597 121.2233,39.3292423 C121.2233,39.5232853 121.070906,39.6754055 120.852969,39.7400865 L120.852969,39.7612475 C121.026675,39.8267271 121.125189,39.9552905 121.179472,40.1940513 C121.233755,40.464354 121.265923,40.5709578 121.309349,40.6368366 L120.863826,40.6368366 C120.809945,40.5709578 120.776169,40.4096546 120.722288,40.2048314 C120.69012,40.0099899 120.58075,39.9233493 120.353163,39.9233493 L120.156538,39.9233493 L120.156538,40.6368366 Z M119.05801,39.7069474 C119.05801,40.4962952 119.644669,41.1227427 120.450471,41.1227427 C121.233755,41.1227427 121.810764,40.4962952 121.810764,39.7185261 C121.810764,38.9303762 121.233755,38.2927493 120.440016,38.2927493 C119.644669,38.2927493 119.05801,38.9303762 119.05801,39.7069474 Z M122.267143,39.7069474 C122.267143,40.7114993 121.473807,41.5004478 120.440016,41.5004478 C119.417082,41.5004478 118.601228,40.7114993 118.601228,39.7069474 C118.601228,38.7247545 119.417082,37.935806 120.440016,37.935806 C121.473807,37.935806 122.267143,38.7247545 122.267143,39.7069474 L122.267143,39.7069474 Z" id="Fill-28" fill="#4E504F" mask="url(#mask-4)"></path>
                </g>
            </g>
        </g>
    </g>
</svg>